<svg width="484" height="915" fill="none" xmlns="http://www.w3.org/2000/svg"><path d="M228 65l47.632 83.25h-95.263L228 65z" fill="#56CCF2"/><path d="M228 65l47.632 83.25h-95.263L228 65z" fill="url(#paint0_linear)"/><path d="M216.926 325.385L94.917 371.474l19.619-126.877 102.39 80.788z" fill="#56CCF2"/><path d="M216.926 325.385L94.917 371.474l19.619-126.877 102.39 80.788z" fill="url(#paint1_linear)"/><path d="M375.3 54.882l-30.018 91.095-63.726-70.81L375.3 54.882z" fill="#56CCF2"/><path d="M375.3 54.882l-30.018 91.095-63.726-70.81L375.3 54.882z" fill="url(#paint2_linear)"/><path d="M262.3 198.882l-30.018 91.095-63.726-70.81 93.744-20.285z" fill="#56CCF2"/><path d="M262.3 198.882l-30.018 91.095-63.726-70.81 93.744-20.285z" fill="url(#paint3_linear)"/><path d="M202.62 65.051l-87.306 39.711 8.829-94.853L202.62 65.05z" fill="#56CCF2"/><path d="M202.62 65.051l-87.306 39.711 8.829-94.853L202.62 65.05z" fill="url(#paint4_linear)"/><path d="M478.62 175.051l-87.307 39.711 8.83-94.853 78.477 55.142z" fill="#56CCF2"/><path d="M478.62 175.051l-87.307 39.711 8.83-94.853 78.477 55.142z" fill="url(#paint5_linear)"/><path d="M386.923 166.153l-32.936 109.088-78.47-85.135 111.406-23.953z" fill="#56CCF2"/><path d="M386.923 166.153l-32.936 109.088-78.47-85.135 111.406-23.953z" fill="url(#paint6_linear)"/><path d="M405.351 261.933l41.058 106.298-114.223-18.937 73.165-87.361z" fill="#56CCF2"/><path d="M405.351 261.933l41.058 106.298-114.223-18.937 73.165-87.361z" fill="url(#paint7_linear)"/><path d="M326.894 299.442l-28.932 91.445-64.563-70.047 93.495-21.398z" fill="#56CCF2"/><path d="M326.894 299.442l-28.932 91.445-64.563-70.047 93.495-21.398z" fill="url(#paint8_linear)"/><path d="M93.962 222.5l-28.933 91.445L.466 243.898 93.962 222.5z" fill="#56CCF2"/><path d="M93.962 222.5l-28.933 91.445L.466 243.898 93.962 222.5z" fill="url(#paint9_linear)"/><path d="M153.3 120.882l-30.018 91.095-63.725-70.81 93.743-20.285z" fill="#56CCF2"/><path d="M153.3 120.882l-30.018 91.095-63.725-70.81 93.743-20.285z" fill="url(#paint10_linear)"/><path d="M229.923 357.753l-10.077 35.329-26.115-29.018 36.192-6.311z" fill="#A7AFBD"/><path d="M229.923 357.753l-10.077 35.329-26.115-29.018 36.192-6.311z" fill="url(#paint11_linear)"/><path d="M249.923 400.753l-10.077 35.329-26.115-29.018 36.192-6.311z" fill="#A7AFBD"/><path d="M249.923 400.753l-10.077 35.329-26.115-29.018 36.192-6.311z" fill="url(#paint12_linear)"/><path d="M234.107 443.34l13.161 34.299-38.307-7.517 25.146-26.782z" fill="#A7AFBD"/><path d="M234.107 443.34l13.161 34.299-38.307-7.517 25.146-26.782z" fill="url(#paint13_linear)"/><path d="M302.923 457.753l-10.077 35.329-26.115-29.018 36.192-6.311z" fill="#A7AFBD"/><path d="M302.923 457.753l-10.077 35.329-26.115-29.018 36.192-6.311z" fill="url(#paint14_linear)"/><path d="M344.923 499.753l-10.077 35.329-26.115-29.018 36.192-6.311z" fill="#A7AFBD"/><path d="M344.923 499.753l-10.077 35.329-26.115-29.018 36.192-6.311z" fill="url(#paint15_linear)"/><path d="M394.923 485.753l-10.077 35.329-26.115-29.018 36.192-6.311z" fill="#A7AFBD"/><path d="M394.923 485.753l-10.077 35.329-26.115-29.018 36.192-6.311z" fill="url(#paint16_linear)"/><path d="M405.923 533.753l-10.077 35.329-26.115-29.018 36.192-6.311z" fill="#A7AFBD"/><path d="M405.923 533.753l-10.077 35.329-26.115-29.018 36.192-6.311z" fill="url(#paint17_linear)"/><path d="M440.923 561.753l-10.077 35.329-26.115-29.018 36.192-6.311z" fill="#A7AFBD"/><path d="M440.923 561.753l-10.077 35.329-26.115-29.018 36.192-6.311z" fill="url(#paint18_linear)"/><path d="M409.923 614.753l-10.077 35.329-26.115-29.018 36.192-6.311z" fill="#A7AFBD"/><path d="M409.923 614.753l-10.077 35.329-26.115-29.018 36.192-6.311z" fill="url(#paint19_linear)"/><path d="M447.923 662.753l-10.077 35.329-26.115-29.018 36.192-6.311z" fill="#A7AFBD"/><path d="M447.923 662.753l-10.077 35.329-26.115-29.018 36.192-6.311z" fill="url(#paint20_linear)"/><path d="M426.923 712.753l-10.077 35.329-26.115-29.018 36.192-6.311z" fill="#A7AFBD"/><path d="M426.923 712.753l-10.077 35.329-26.115-29.018 36.192-6.311z" fill="url(#paint21_linear)"/><path d="M447.923 773.753l-10.077 35.329-26.115-29.018 36.192-6.311z" fill="#A7AFBD"/><path d="M447.923 773.753l-10.077 35.329-26.115-29.018 36.192-6.311z" fill="url(#paint22_linear)"/><path d="M427.923 824.753l-10.077 35.329-26.115-29.018 36.192-6.311z" fill="#A7AFBD"/><path d="M427.923 824.753l-10.077 35.329-26.115-29.018 36.192-6.311z" fill="url(#paint23_linear)"/><path d="M455.923 869.753l-10.077 35.329-26.115-29.018 36.192-6.311z" fill="#A7AFBD"/><path d="M455.923 869.753l-10.077 35.329-26.115-29.018 36.192-6.311z" fill="url(#paint24_linear)"/><defs><linearGradient id="paint0_linear" x1="228" y1="65" x2="228" y2="176" gradientUnits="userSpaceOnUse"><stop stop-color="#F6FAFA"/><stop offset="1" stop-color="#fff" stop-opacity="0"/></linearGradient><linearGradient id="paint1_linear" x1="216.926" y1="325.385" x2="67.327" y2="302.253" gradientUnits="userSpaceOnUse"><stop stop-color="#F6FAFA"/><stop offset="1" stop-color="#fff" stop-opacity="0"/></linearGradient><linearGradient id="paint2_linear" x1="375.3" y1="54.882" x2="292.792" y2="129.135" gradientUnits="userSpaceOnUse"><stop stop-color="#F6FAFA"/><stop offset="1" stop-color="#fff" stop-opacity="0"/></linearGradient><linearGradient id="paint3_linear" x1="262.3" y1="198.882" x2="179.792" y2="273.135" gradientUnits="userSpaceOnUse"><stop stop-color="#F6FAFA"/><stop offset="1" stop-color="#fff" stop-opacity="0"/></linearGradient><linearGradient id="paint4_linear" x1="202.62" y1="65.051" x2="92.098" y2="54.763" gradientUnits="userSpaceOnUse"><stop stop-color="#F6FAFA"/><stop offset="1" stop-color="#fff" stop-opacity="0"/></linearGradient><linearGradient id="paint5_linear" x1="478.62" y1="175.051" x2="368.098" y2="164.763" gradientUnits="userSpaceOnUse"><stop stop-color="#F6FAFA"/><stop offset="1" stop-color="#fff" stop-opacity="0"/></linearGradient><linearGradient id="paint6_linear" x1="386.923" y1="166.153" x2="290.695" y2="254.847" gradientUnits="userSpaceOnUse"><stop stop-color="#F6FAFA"/><stop offset="1" stop-color="#fff" stop-opacity="0"/></linearGradient><linearGradient id="paint7_linear" x1="405.351" y1="261.933" x2="383.947" y2="391.039" gradientUnits="userSpaceOnUse"><stop stop-color="#F6FAFA"/><stop offset="1" stop-color="#fff" stop-opacity="0"/></linearGradient><linearGradient id="paint8_linear" x1="326.894" y1="299.442" x2="245.275" y2="374.671" gradientUnits="userSpaceOnUse"><stop stop-color="#F6FAFA"/><stop offset="1" stop-color="#fff" stop-opacity="0"/></linearGradient><linearGradient id="paint9_linear" x1="122.894" y1="177.442" x2="41.276" y2="252.671" gradientUnits="userSpaceOnUse"><stop stop-color="#F6FAFA"/><stop offset="1" stop-color="#fff" stop-opacity="0"/></linearGradient><linearGradient id="paint10_linear" x1="153.3" y1="120.882" x2="70.793" y2="195.135" gradientUnits="userSpaceOnUse"><stop stop-color="#F6FAFA"/><stop offset="1" stop-color="#fff" stop-opacity="0"/></linearGradient><linearGradient id="paint11_linear" x1="229.923" y1="357.753" x2="199.077" y2="385.513" gradientUnits="userSpaceOnUse"><stop stop-color="#fff" stop-opacity="0"/><stop offset="1" stop-color="#F6FAFA"/></linearGradient><linearGradient id="paint12_linear" x1="249.923" y1="400.753" x2="219.077" y2="428.513" gradientUnits="userSpaceOnUse"><stop stop-color="#fff" stop-opacity="0"/><stop offset="1" stop-color="#F6FAFA"/></linearGradient><linearGradient id="paint13_linear" x1="234.107" y1="443.34" x2="226.117" y2="484.061" gradientUnits="userSpaceOnUse"><stop stop-color="#fff" stop-opacity="0"/><stop offset="1" stop-color="#F6FAFA"/></linearGradient><linearGradient id="paint14_linear" x1="302.923" y1="457.753" x2="272.077" y2="485.513" gradientUnits="userSpaceOnUse"><stop stop-color="#fff" stop-opacity="0"/><stop offset="1" stop-color="#F6FAFA"/></linearGradient><linearGradient id="paint15_linear" x1="344.923" y1="499.753" x2="314.077" y2="527.513" gradientUnits="userSpaceOnUse"><stop stop-color="#fff" stop-opacity="0"/><stop offset="1" stop-color="#F6FAFA"/></linearGradient><linearGradient id="paint16_linear" x1="394.923" y1="485.753" x2="364.077" y2="513.513" gradientUnits="userSpaceOnUse"><stop stop-color="#fff" stop-opacity="0"/><stop offset="1" stop-color="#F6FAFA"/></linearGradient><linearGradient id="paint17_linear" x1="405.923" y1="533.753" x2="375.077" y2="561.513" gradientUnits="userSpaceOnUse"><stop stop-color="#fff" stop-opacity="0"/><stop offset="1" stop-color="#F6FAFA"/></linearGradient><linearGradient id="paint18_linear" x1="440.923" y1="561.753" x2="410.077" y2="589.513" gradientUnits="userSpaceOnUse"><stop stop-color="#fff" stop-opacity="0"/><stop offset="1" stop-color="#F6FAFA"/></linearGradient><linearGradient id="paint19_linear" x1="409.923" y1="614.753" x2="379.077" y2="642.513" gradientUnits="userSpaceOnUse"><stop stop-color="#fff" stop-opacity="0"/><stop offset="1" stop-color="#F6FAFA"/></linearGradient><linearGradient id="paint20_linear" x1="447.923" y1="662.753" x2="417.077" y2="690.513" gradientUnits="userSpaceOnUse"><stop stop-color="#fff" stop-opacity="0"/><stop offset="1" stop-color="#F6FAFA"/></linearGradient><linearGradient id="paint21_linear" x1="426.923" y1="712.753" x2="396.077" y2="740.513" gradientUnits="userSpaceOnUse"><stop stop-color="#fff" stop-opacity="0"/><stop offset="1" stop-color="#F6FAFA"/></linearGradient><linearGradient id="paint22_linear" x1="447.923" y1="773.753" x2="417.077" y2="801.513" gradientUnits="userSpaceOnUse"><stop stop-color="#fff" stop-opacity="0"/><stop offset="1" stop-color="#F6FAFA"/></linearGradient><linearGradient id="paint23_linear" x1="427.923" y1="824.753" x2="397.077" y2="852.513" gradientUnits="userSpaceOnUse"><stop stop-color="#fff" stop-opacity="0"/><stop offset="1" stop-color="#F6FAFA"/></linearGradient><linearGradient id="paint24_linear" x1="455.923" y1="869.753" x2="425.077" y2="897.513" gradientUnits="userSpaceOnUse"><stop stop-color="#fff" stop-opacity="0"/><stop offset="1" stop-color="#F6FAFA"/></linearGradient></defs></svg>
